<svg width="64" height="64" viewBox="0 0 64 64" fill="none" xmlns="http://www.w3.org/2000/svg">
<g clip-path="url(#clip0_494_634)">
<path fill-rule="evenodd" clip-rule="evenodd" d="M9.80238 19.372L9.74107 12.1788L13.4803 10.8969L17.8452 16.6147L25.0384 16.5534L26.3203 20.2926L20.6026 24.6575L20.6639 31.8507L16.9247 33.1326L12.5597 27.4149L5.36654 27.4762L4.08462 23.737L9.80238 19.372ZM13.9609 18.3931L13.9778 20.3781L13.1587 22.0518L11.5808 23.2564L13.5658 23.2395L15.2395 24.0586L16.4441 25.6364L16.4272 23.6514L17.2463 21.9777L18.8241 20.7731L16.8391 20.7901L15.1654 19.971L13.9609 18.3931ZM37.7569 16.5675C36.845 16.7991 35.6969 17.191 34.0089 17.7698L31.644 18.5805L30.2927 14.639L32.739 13.8004C34.3254 13.2565 35.6346 12.8076 36.7311 12.5291C37.8698 12.2398 38.9547 12.085 40.0783 12.2444C41.8206 12.4917 43.44 13.2842 44.7043 14.5084C45.5195 15.2977 46.0629 16.2494 46.5331 17.3262C46.9859 18.3628 47.4348 19.6721 47.9786 21.2585L50.3312 28.1208C50.8751 29.7071 51.3239 31.0164 51.6024 32.1128C51.8917 33.2516 52.0466 34.3364 51.8871 35.46C51.6399 37.2023 50.8474 38.8217 49.6232 40.086C48.8338 40.9012 47.8821 41.4446 46.8054 41.9149C45.7687 42.3676 44.4594 42.8165 42.8731 43.3603L42.4594 43.5021L39.773 50.2622L36.7801 51.2882L30.5112 47.5983L30.0975 47.7402C28.5111 48.284 27.2019 48.7329 26.1054 49.0114C24.9667 49.3007 23.8818 49.4555 22.7583 49.2961C21.0159 49.0488 19.3965 48.2563 18.1322 47.0322C17.317 46.2428 16.7736 45.2911 16.3034 44.2144C15.8506 43.1777 15.4017 41.8684 14.8579 40.282L14.3573 38.8216L18.2987 37.4704L18.7715 38.8494C19.3502 40.5374 19.7452 41.6845 20.1217 42.5466C20.4885 43.3864 20.7679 43.7844 21.0307 44.0388C21.6628 44.6509 22.4725 45.0471 23.3437 45.1708C23.7057 45.2221 24.1914 45.1986 25.0796 44.973C25.9915 44.7414 27.1396 44.3495 28.8277 43.7708L30.973 43.0353L36.7986 46.4643L39.2951 40.1822L41.4404 39.4467C43.1285 38.868 44.2755 38.4731 45.1377 38.0965C45.9775 37.7297 46.3754 37.4503 46.6298 37.1876C47.2419 36.5554 47.6382 35.7457 47.7618 34.8746C47.8132 34.5125 47.7896 34.0268 47.564 33.1386C47.3324 32.2267 46.9405 31.0787 46.3618 29.3906L44.065 22.6912C43.4863 21.0031 43.0914 19.8561 42.7148 18.9939C42.348 18.1541 42.0686 17.7561 41.8059 17.5017C41.1737 16.8896 40.364 16.4934 39.4928 16.3698C39.1308 16.3184 38.6451 16.3419 37.7569 16.5675Z" fill="#0C66F1"/>
<path fill-rule="evenodd" clip-rule="evenodd" d="M28.5162 30.1705L28.4794 25.8546L30.723 25.0855L33.3419 28.5161L37.6578 28.4793L38.427 30.7228L34.9963 33.3418L35.0331 37.6577L32.7896 38.4269L30.1706 34.9962L25.8547 35.033L25.0856 32.7895L28.5162 30.1705Z" fill="#0C66F1"/>
</g>
<defs>
<clipPath id="clip0_494_634">
<rect width="50" height="50" fill="white" transform="translate(0 16.2148) rotate(-18.9233)"/>
</clipPath>
</defs>
</svg>
