<svg width="64" height="64" viewBox="0 0 64 64" fill="none" xmlns="http://www.w3.org/2000/svg">
<path d="M51.4075 27.3186L46.1782 25.7181L47.7786 20.4888C48.0818 19.4981 47.9791 18.4276 47.493 17.5127C47.0068 16.5979 46.1772 15.9136 45.1866 15.6104L21.2811 8.294C20.2905 7.99081 19.22 8.09357 18.3051 8.57967C17.3902 9.06577 16.7059 9.8954 16.4027 10.886L9.08634 34.7915C8.95708 35.2145 8.95016 35.6655 9.06639 36.0923C9.18262 36.519 9.41724 36.9042 9.74314 37.2033C10.069 37.5023 10.4729 37.7031 10.9081 37.7823C11.3433 37.8615 11.792 37.8159 12.2024 37.6509L18.8323 34.9821L17.5936 39.0292C17.2904 40.0199 17.3932 41.0904 17.8793 42.0053C18.3654 42.9201 19.195 43.6044 20.1857 43.9076L37.3995 49.176L42.5005 56.728C42.7482 57.0945 43.0946 57.3834 43.4996 57.5613C43.9045 57.7392 44.3516 57.7989 44.789 57.7335C45.2265 57.6681 45.6365 57.4802 45.9717 57.1915C46.3069 56.9029 46.5535 56.5253 46.6832 56.1024L53.9995 32.197C54.3027 31.2063 54.2 30.1358 53.7139 29.2209C53.2278 28.3061 52.3981 27.6217 51.4075 27.3186ZM15.005 31.47L20.6564 13.0049L43.0677 19.864L38.495 34.8049L21.2345 29.5223C20.7198 29.3632 20.1659 29.3863 19.6662 29.5877L15.005 31.47ZM43.6373 50.0373L40.828 45.8686C40.5282 45.4242 40.085 45.0961 39.5725 44.9389L22.3045 39.654L23.6763 35.1717L37.8702 39.5158C38.8608 39.819 39.9314 39.7163 40.8462 39.2302C41.7611 38.7441 42.4454 37.9144 42.7486 36.9238L44.8063 30.2004L49.2886 31.5722L43.6373 50.0373Z" fill="#0C66F1"/>
</svg>
