<svg width="56" height="56" viewBox="0 0 56 56" fill="none" xmlns="http://www.w3.org/2000/svg">
<path d="M7.42964 27.7482C8.17037 27.2957 9.00619 27.0216 9.87106 26.9476C7.23437 23.2221 6.07813 19.6492 6.43473 16.2754C7.02331 10.7068 11.987 6.64941 17.4974 7.23183C20.1524 7.49958 22.5939 8.806 24.2897 10.8663C26.3788 9.20605 29.0394 8.43891 31.6917 8.73212C37.2021 9.31454 41.2079 14.32 40.6193 19.8886C40.4109 21.86 39.6743 23.7756 38.3925 25.6827C39.208 26.1247 39.9277 26.7241 40.5099 27.4463L44.2433 32.0556L48.7106 32.5278C49.7409 32.6367 50.6857 33.1504 51.3372 33.9559C51.9887 34.7614 52.2935 35.7927 52.1846 36.823L51.3635 44.5922C51.2546 45.6225 50.7409 46.5673 49.9354 47.2188C49.1298 47.8703 48.0985 48.1751 47.0683 48.0662L27.6452 46.0133C27.4546 45.9933 27.2673 45.9497 27.0874 45.8836L14.9851 41.4621C14.8693 41.4203 14.7571 41.3691 14.6497 41.3088L7.44926 37.2993C7.40644 37.2771 7.36576 37.2531 7.32529 37.2272C6.52662 36.7162 5.8711 36.0104 5.42045 35.1762C4.96979 34.342 4.73881 33.4069 4.74925 32.4588C4.75969 31.5107 5.01119 30.5809 5.48011 29.7568C5.94902 28.9327 6.61991 28.2415 7.42964 27.7482ZM31.199 13.3937C30.1506 13.2665 29.0881 13.4549 28.1473 13.9348C27.2065 14.4147 26.4303 15.1644 25.9178 16.0878C25.6971 16.4968 25.3597 16.8308 24.9486 17.0476C24.5375 17.2643 24.0713 17.354 23.6091 17.3051C23.147 17.2563 22.7098 17.0711 22.3531 16.7732C21.9964 16.4753 21.7363 16.0781 21.6059 15.6321C21.2979 14.6219 20.6955 13.7266 19.8758 13.0605C19.0562 12.3945 18.0565 11.9882 17.0047 11.8934C14.1145 11.5879 11.4079 13.8197 11.0963 16.7681C10.7255 20.2759 13.2124 24.6199 18.2863 29.3494L19.1617 29.6521C19.1703 29.5705 19.1789 29.4889 19.1876 29.4073C19.3618 27.7589 20.1837 26.2472 21.4725 25.2048C22.7613 24.1624 24.4115 23.6747 26.0599 23.8489L33.3027 24.6144C34.9289 22.7752 35.7777 21.0993 35.9578 19.3958C36.2694 16.4474 34.0892 13.6991 31.199 13.3937ZM47.441 37.1072L45.1102 36.8609L44.4533 43.0762L46.784 43.3226L47.441 37.1072ZM9.80988 33.2496L16.767 37.1273L28.4254 41.3822L39.7917 42.5835L40.5924 35.0085L36.8648 30.3998C36.6723 30.1592 36.4341 29.9592 36.1639 29.8113C35.8936 29.6634 35.5967 29.5705 35.2904 29.5381L25.5672 28.5104C25.1551 28.4669 24.7425 28.5888 24.4203 28.8494C24.0981 29.11 23.8927 29.4879 23.8491 29.9C23.8055 30.3121 23.9275 30.7247 24.1881 31.0469C24.4487 31.3691 24.8266 31.5746 25.2387 31.6181L30.6772 32.1929C31.2953 32.2583 31.8622 32.5665 32.2531 33.0498C32.644 33.5331 32.8269 34.1519 32.7616 34.7701C32.6962 35.3882 32.388 35.9551 31.9047 36.346C31.4214 36.7369 30.8026 36.9198 30.1845 36.8545L23.9691 36.1975C23.7933 36.179 23.6201 36.1409 23.4528 36.084L10.7557 31.7155L10.6668 31.6825C10.538 31.6324 10.3993 31.6126 10.2616 31.6248C10.1239 31.6369 9.99078 31.6806 9.87265 31.7524C9.75452 31.8242 9.65452 31.9223 9.58041 32.039C9.50629 32.1557 9.46005 32.288 9.44527 32.4254C9.42767 32.5828 9.45215 32.742 9.51621 32.8868C9.58027 33.0316 9.68161 33.1568 9.80988 33.2496Z" fill="#0C66F1"/>
</svg>
