<svg width="32" height="33" viewBox="0 0 32 33" fill="none" xmlns="http://www.w3.org/2000/svg">
<path fill-rule="evenodd" clip-rule="evenodd" d="M16.6554 3.76084C16.2221 3.68426 15.7774 3.68426 15.3441 3.76084C14.9124 3.83714 14.47 4.02857 12.9786 4.73103L7.28982 7.41048C5.46224 8.27127 4.93811 8.54257 4.57088 8.89576C4.20212 9.25044 3.92167 9.67791 3.74982 10.1472C3.57869 10.6146 3.5555 11.1775 3.5555 13.1023V18.751C3.5555 20.4855 3.57475 20.9921 3.71817 21.4232C3.86214 21.856 4.09794 22.2568 4.41126 22.6012C4.72337 22.9443 5.16919 23.2281 6.73057 24.1474L12.4194 27.4967C14.1707 28.5278 14.6955 28.8105 15.2119 28.9211C15.7305 29.0321 16.269 29.0321 16.7876 28.9211C17.304 28.8105 17.8289 28.5278 19.5801 27.4967L25.2689 24.1474C26.8303 23.2281 27.2761 22.9443 27.5883 22.6012C27.9016 22.2568 28.1374 21.856 28.2813 21.4232C28.4248 20.9921 28.444 20.4855 28.444 18.751V13.1023C28.444 11.1775 28.4208 10.6146 28.2497 10.1472C28.0778 9.67791 27.7974 9.25044 27.4286 8.89576C27.0614 8.54257 26.5373 8.27127 24.7097 7.41048L19.0209 4.73103C17.5295 4.02857 17.0871 3.83714 16.6554 3.76084ZM14.6885 0.468965C15.5551 0.315806 16.4444 0.315806 17.311 0.468965C18.2945 0.642789 19.2068 1.07309 20.4152 1.64303C20.4796 1.67341 20.5448 1.70417 20.611 1.73532L26.2998 4.41477C26.3817 4.45334 26.4625 4.49135 26.5422 4.52885C28.0179 5.22269 29.1303 5.74577 29.9687 6.55219C30.7063 7.26154 31.2672 8.11647 31.6109 9.05511C32.0016 10.1222 32.0008 11.2934 31.9996 12.847C31.9996 12.931 31.9995 13.0161 31.9995 13.1023V18.751C31.9995 18.8283 31.9996 18.9045 31.9996 18.9798C32.0005 20.3829 32.0012 21.4415 31.6742 22.4247C31.3862 23.2903 30.9146 24.0919 30.288 24.7807C29.5763 25.563 28.6229 26.1235 27.3593 26.8664C27.2916 26.9063 27.2229 26.9466 27.1534 26.9876L21.4646 30.3369C21.386 30.3831 21.3086 30.4288 21.2322 30.4739C19.8196 31.3068 18.7548 31.9347 17.5754 32.1871C16.5382 32.4091 15.4613 32.4091 14.4241 32.1871C13.2448 31.9347 12.1799 31.3068 10.7674 30.4739C10.6909 30.4288 10.6135 30.3831 10.535 30.3369L4.84615 26.9876C4.77659 26.9466 4.70794 26.9063 4.64017 26.8664C3.37662 26.1235 2.42324 25.563 1.71151 24.7807C1.08487 24.0919 0.613278 23.2903 0.325331 22.4247C-0.00171601 21.4415 -0.00102322 20.3829 -0.000105372 18.9798C-5.62053e-05 18.9045 -6.40308e-06 18.8283 -6.40308e-06 18.751V13.1023C-6.40308e-06 13.0161 -6.74373e-05 12.931 -0.000127624 12.847C-0.00124129 11.2934 -0.00208094 10.1222 0.388644 9.05511C0.732335 8.11647 1.29324 7.26154 2.03077 6.55219C2.86923 5.74577 3.98165 5.22269 5.45726 4.52885C5.53702 4.49135 5.61785 4.45334 5.69975 4.41477L11.3886 1.73532C11.4547 1.70417 11.5199 1.6734 11.5843 1.64303C12.7927 1.07309 13.705 0.642789 14.6885 0.468965Z" fill="#3147FF"/>
<path fill-rule="evenodd" clip-rule="evenodd" d="M1.96543 8.22276C2.40451 7.39552 3.47236 7.06021 4.35053 7.47383L9.68379 9.98581C10.562 10.3994 10.9179 11.4054 10.4788 12.2326C10.0397 13.0598 8.97189 13.3951 8.09372 12.9815L2.76046 10.4695C1.88229 10.0559 1.52634 9.05 1.96543 8.22276ZM30.0341 8.22276C30.4732 9.05 30.1172 10.0559 29.2391 10.4695L23.9058 12.9815C23.0276 13.3951 21.9598 13.0598 21.5207 12.2326C21.0816 11.4054 21.4376 10.3994 22.3157 9.98581L27.649 7.47383C28.5272 7.06021 29.595 7.39552 30.0341 8.22276ZM15.9998 24.8809C16.9816 24.8809 17.7775 25.6307 17.7775 26.5555V29.9048C17.7775 30.8297 16.9816 31.5795 15.9998 31.5795C15.0179 31.5795 14.222 30.8297 14.222 29.9048V26.5555C14.222 25.6307 15.0179 24.8809 15.9998 24.8809Z" fill="#3147FF"/>
<path fill-rule="evenodd" clip-rule="evenodd" d="M15.9998 10.4789C16.4589 10.4789 16.8665 10.7556 17.0117 11.1659L18.1763 14.4573L21.6703 15.5544C22.1059 15.6912 22.3997 16.0751 22.3997 16.5076C22.3997 16.9401 22.1059 17.3241 21.6703 17.4609L18.1763 18.558L17.0117 21.8493C16.8665 22.2596 16.4589 22.5364 15.9998 22.5364C15.5406 22.5364 15.133 22.2596 14.9878 21.8493L13.8232 18.558L10.3292 17.4609C9.89364 17.3241 9.59985 16.9401 9.59985 16.5076C9.59985 16.0751 9.89364 15.6912 10.3292 15.5544L13.8232 14.4573L14.9878 11.1659C15.133 10.7556 15.5406 10.4789 15.9998 10.4789Z" fill="#3147FF"/>
</svg>
