<svg width="70" height="70" viewBox="0 0 70 70" fill="none" xmlns="http://www.w3.org/2000/svg">
<path fill-rule="evenodd" clip-rule="evenodd" d="M35.8325 19.3388L47.9313 27.1584C49.4336 28.1294 50.6736 28.9307 51.6379 29.6543C52.6395 30.4058 53.5019 31.1867 54.1521 32.1678C55.1602 33.6891 55.6696 35.4062 55.6072 37.0728C55.5669 38.1475 55.2166 39.0929 54.7212 40.0475C54.2441 40.9666 53.5572 42.0294 52.7249 43.3171L48.0902 50.4881C47.258 51.7758 46.5711 52.8386 45.929 53.651C45.2622 54.4948 44.544 55.2025 43.5806 55.6806C42.0867 56.4221 40.312 56.6629 38.5108 56.3685C37.3493 56.1786 36.283 55.713 35.1865 55.1085C34.1307 54.5264 32.8908 53.725 31.3884 52.754L19.2897 44.9344C17.7874 43.9634 16.5474 43.1621 15.5831 42.4385C14.5815 41.687 13.719 40.9061 13.0689 39.925C12.0607 38.4037 11.5513 36.6866 11.6138 35.02C11.6541 33.9453 12.0043 32.9998 12.4998 32.0452C12.9768 31.1261 13.6637 30.0634 14.496 28.7756L19.1307 21.6047C19.963 20.317 20.6498 19.2542 21.2919 18.4417C21.9588 17.5979 22.677 16.8903 23.6403 16.4121C25.1342 15.6707 26.909 15.4299 28.7102 15.7243C29.8717 15.9142 30.9379 16.3797 32.0345 16.9843C33.0902 17.5664 34.3302 18.3678 35.8325 19.3388ZM30.2774 20.3696C29.4222 19.898 28.9366 19.7315 28.5623 19.6703C27.6617 19.5231 26.7743 19.6435 26.0274 20.0142C25.717 20.1683 25.364 20.4486 24.8438 21.1068C24.3098 21.7824 23.7063 22.713 22.8207 24.0833L18.2714 31.1221C17.3858 32.4924 16.7852 33.4248 16.3885 34.1892C16.002 34.9337 15.8914 35.3707 15.8784 35.717C15.8472 36.5503 16.1019 37.4089 16.606 38.1695C16.8155 38.4857 17.1668 38.86 17.948 39.4461C18.75 40.0479 19.836 40.7515 21.4346 41.7848L33.3792 49.5047C34.9779 50.538 36.0655 51.2391 36.9435 51.7232C37.7988 52.1947 38.2844 52.3613 38.6586 52.4225C39.5592 52.5697 40.4466 52.4493 41.1936 52.0786C41.504 51.9245 41.857 51.6442 42.3771 50.986C42.9111 50.3104 43.5146 49.3798 44.4003 48.0095L48.9495 40.9707C49.8352 39.6004 50.4358 38.668 50.8325 37.9036C51.2189 37.159 51.3296 36.7221 51.3425 36.3757C51.3738 35.5424 51.1191 34.6839 50.615 33.9232C50.4055 33.6071 50.0542 33.2328 49.273 32.6467C48.471 32.0449 47.385 31.3413 45.7863 30.308L33.8417 22.5881C32.2431 21.5548 31.1555 20.8537 30.2774 20.3696Z" fill="#0C66F1"/>
<path fill-rule="evenodd" clip-rule="evenodd" d="M40.8064 16.7248L40.217 17.6368L36.4844 15.2241L37.9341 12.9815L38.7532 12.8529C39.4673 12.7409 40.5228 12.5888 41.9866 12.9127C43.4024 13.2259 45.0267 13.9413 47.0516 15.25C49.0765 16.5587 50.3959 17.7459 51.2629 18.9081C52.1594 20.1098 52.4543 21.1346 52.6454 21.8316L52.8647 22.6313L51.4151 24.8741L47.6824 22.4616L48.2718 21.5498C48.178 21.3325 48.0579 21.1211 47.8802 20.8829C47.4834 20.3511 46.6915 19.5532 44.9837 18.4495C43.276 17.3457 42.2232 16.9513 41.5754 16.808C41.2852 16.7438 41.0431 16.7211 40.8064 16.7248Z" fill="#0C66F1"/>
<path fill-rule="evenodd" clip-rule="evenodd" d="M29.4758 42.4459C27.2526 41.0105 25.2985 39.0544 23.9967 36.1831L27.8905 35.0711C28.7705 37.0118 30.0277 38.2677 31.5416 39.2452C33.0555 40.2226 34.7198 40.8558 36.849 40.861L37.4343 44.8681C34.2799 44.8604 31.6925 43.8772 29.4758 42.4459Z" fill="#0C66F1"/>
<path d="M25.8296 27.6156C26.6862 26.2903 28.6339 26.0261 30.18 27.0254C31.7262 28.0246 32.2852 29.9091 31.4287 31.2343C30.5721 32.5596 28.6244 32.8238 27.0783 31.8245C25.5321 30.8252 24.9731 28.9408 25.8296 27.6156Z" fill="#0C66F1"/>
<path d="M38.8941 36.0593C39.7506 34.734 41.6983 34.4698 43.2445 35.4691C44.7906 36.4684 45.3496 38.3528 44.4931 39.678C43.6366 41.0033 41.6888 41.2675 40.1427 40.2682C38.5966 39.269 38.0375 37.3846 38.8941 36.0593Z" fill="#0C66F1"/>
</svg>
